<svg xmlns="http://www.w3.org/2000/svg" xml:space="preserve" width="1177.3711" height="499.99997" viewBox="0 0 1177.3711 499.99997"><g style="fill:#fff"><path d="M721.813 156.07h23.522v188.57h-23.522zm-41.392 163.864h-23.26v-131.01h-72.273v-21.158h95.533z" style="fill:#fff;fill-opacity:1;fill-rule:nonzero;stroke:none;stroke-width:131.406"/><g style="fill:#fff"><path d="M0 0h.206v-.175H0v-.304h-.177v.735H0Zm-.246-.872c0 .054-.02.1-.06.139a.194.194 0 0 1-.14.057.193.193 0 0 1-.139-.057.189.189 0 0 1-.058-.139c0-.054.019-.101.058-.139a.193.193 0 0 1 .139-.057c.054 0 .101.019.14.057.04.038.06.085.06.139m.174-.001a.311.311 0 0 0-.03-.136.388.388 0 0 0-.078-.112.392.392 0 0 0-.264-.105.398.398 0 0 0-.265.105.358.358 0 0 0-.08.112.311.311 0 0 0-.03.136c0 .048.01.093.03.135.02.043.046.08.08.112a.392.392 0 0 0 .265.105.393.393 0 0 0 .264-.105.388.388 0 0 0 .078-.112.31.31 0 0 0 .03-.135m-.396.419-.299.436-.298-.447-.143.095.441.643.442-.629z" style="fill:#fff;fill-opacity:1;fill-rule:nonzero;stroke:none" transform="matrix(131.40604 0 0 -131.40604 949.54 189.711)"/></g><g style="fill:#fff"><path d="M0 0v.273h-.251v.153H0v.338h.178V0Zm-.119-.363a.19.19 0 0 1-.059.138.195.195 0 0 1-.14.058c-.054 0-.1-.02-.139-.058a.192.192 0 0 1-.058-.138c0-.055.02-.102.058-.14A.192.192 0 0 1-.318-.56c.054 0 .101.019.14.057a.189.189 0 0 1 .059.14m.175-.002a.329.329 0 0 0-.029-.136.38.38 0 0 0-.489-.188.385.385 0 0 0-.119.076.385.385 0 0 0-.079.112.318.318 0 0 0 0 .272c.02.042.046.079.079.112a.385.385 0 0 0 .608-.112.332.332 0 0 0 .029-.136m-1.145.86v.15h.336v.137h.19V.645h.32v-.15h-.349L-.23.129l-.116-.11-.312.325-.309-.35-.119.111.364.39z" style="fill:#fff;fill-opacity:1;fill-rule:nonzero;stroke:none" transform="matrix(131.40604 0 0 -131.40604 1153.98 256.505)"/></g></g><path d="M0 0a1.902 1.902 0 1 0-3.804 0A1.902 1.902 0 0 0 0 0" style="fill:#fff;fill-opacity:1;fill-rule:nonzero;stroke:none" transform="matrix(131.40604 0 0 -131.40604 500 250.066)"/><path d="M0 0a.629.629 0 0 1-.894-.187.63.63 0 0 0-.525-.291.633.633 0 0 0-.611.464l-.002.006-.002.008a.799.799 0 0 0-.032.25c0 .563.578 1.19 1.41 1.19C.197 1.44.684.791.81.43L.804.45a1.796 1.796 0 0 1-3.493-.582c0-.886.639-1.645 1.525-1.645.707 0 1.182.396 1.4.942.12.299.035.65-.236.835" style="fill:#0c426e;fill-opacity:1;fill-rule:nonzero;stroke:none" transform="matrix(131.40604 0 0 -131.40604 367.595 232.576)"/><path d="M0 0c-.105.352-.596 1.045-1.477 1.045-.832 0-1.41-.627-1.41-1.19 0-.105.006-.152.032-.25a.516.516 0 0 0-.016.128c0 .587.587.993 1.191.993A1.48 1.48 0 0 0-.201-.754c0-.641-.368-1.195-.904-1.462A1.795 1.795 0 0 1 0 0" style="fill:#e6223a;fill-opacity:1;fill-rule:nonzero;stroke:none" transform="matrix(131.40604 0 0 -131.40604 475.506 180.644)"/></svg>